<svg width="96" height="96" xmlns="http://www.w3.org/2000/svg" xmlns:xlink="http://www.w3.org/1999/xlink" xml:space="preserve" overflow="hidden"><g transform="translate(-592 -312)"><path d="M678.707 334.229 665.771 321.293C665.375 320.908 664.742 320.918 664.357 321.314 663.981 321.702 663.981 322.319 664.357 322.707L667.536 325.886 661.096 332.319 654.005 325.293C653.614 324.902 652.981 324.902 652.59 325.293 652.2 325.683 652.2 326.316 652.59 326.707L655.79 329.907 626.582 359.128C624.667 361.018 623.583 363.593 623.57 366.284 623.588 367.336 623.747 368.381 624.041 369.391L618.146 375.288C616.846 376.601 616.44 378.556 617.11 380.278L617.721 380.889 600.318 398.293C599.921 398.677 599.91 399.31 600.293 399.707 600.677 400.104 601.31 400.115 601.707 399.732 601.716 399.724 601.724 399.715 601.732 399.707L619.135 382.303 619.746 382.914C621.468 383.583 623.422 383.177 624.735 381.879L630.63 375.982C631.64 376.277 632.685 376.435 633.737 376.453 636.437 376.491 639.031 375.398 640.891 373.44L670.1 344.217 673.59 347.707C673.974 348.103 674.608 348.113 675.004 347.729 675.401 347.344 675.41 346.711 675.026 346.314 675.018 346.307 675.011 346.3 675.004 346.293L667.685 338.908 674.125 332.476 677.292 335.643C677.689 336.027 678.322 336.018 678.706 335.621 679.083 335.233 679.083 334.617 678.706 334.229ZM623.321 380.465C622.823 380.961 622.147 381.237 621.444 381.232 621.234 381.232 621.024 381.208 620.819 381.159L618.865 379.204C618.645 378.306 618.909 377.358 619.56 376.702L625.423 370.837 629.185 374.599ZM639.444 372.059C637.961 373.621 635.89 374.489 633.737 374.453 632.999 374.434 632.266 374.328 631.553 374.139L625.884 368.47C625.695 367.756 625.589 367.023 625.57 366.284 625.58 364.123 626.454 362.055 627.997 360.542L632.061 356.476 643.544 367.958ZM668.658 342.831 663.425 348.067 657.008 341.65 655.594 343.064 662.011 349.481 657.426 354.068 651.017 347.658 649.603 349.072 656.013 355.482 651.428 360.07 645.017 353.659 643.603 355.073 650.014 361.484 644.957 366.544 633.475 355.061 657.177 331.348ZM666.272 337.493 666.239 337.527 662.478 333.766 662.51 333.734 668.95 327.3 672.712 331.062Z"/></g></svg>